<?xml version="1.0" encoding="UTF-8"?>
<svg id="Layer_2" data-name="Layer 2" xmlns="http://www.w3.org/2000/svg" viewBox="0 0 212.19 160.43">
  <defs>
    <style>
      .cls-1 {
        stroke-width: .57px;
      }

      .cls-1, .cls-2, .cls-3, .cls-4, .cls-5, .cls-6, .cls-7, .cls-8, .cls-9, .cls-10, .cls-11, .cls-12, .cls-13, .cls-14, .cls-15, .cls-16, .cls-17, .cls-18, .cls-19, .cls-20, .cls-21 {
        fill: none;
      }

      .cls-1, .cls-2, .cls-3, .cls-4, .cls-5, .cls-6, .cls-7, .cls-8, .cls-9, .cls-10, .cls-11, .cls-12, .cls-13, .cls-16, .cls-17, .cls-18, .cls-19, .cls-20, .cls-21 {
        stroke-linecap: round;
        stroke-linejoin: round;
      }

      .cls-1, .cls-8, .cls-9, .cls-10, .cls-18 {
        stroke: #1e1e30;
      }

      .cls-2, .cls-3, .cls-4, .cls-14, .cls-15 {
        stroke-width: 1.43px;
      }

      .cls-2, .cls-7, .cls-17, .cls-19, .cls-20 {
        stroke: #fff;
      }

      .cls-3 {
        stroke: #9f9ec3;
      }

      .cls-22 {
        opacity: .1;
      }

      .cls-23 {
        fill: #fc2b79;
      }

      .cls-24 {
        fill: #fb927d;
      }

      .cls-25, .cls-26 {
        fill: #008831;
      }

      .cls-27, .cls-28, .cls-29 {
        fill: #fff;
      }

      .cls-30 {
        fill: #ffe992;
      }

      .cls-31 {
        fill: #fff6d3;
      }

      .cls-32 {
        fill: #ffc9bd;
      }

      .cls-33 {
        fill: #ffcd2c;
      }

      .cls-34 {
        fill: #e67868;
      }

      .cls-35 {
        fill: #fbfbff;
      }

      .cls-36 {
        fill: #e5e5ee;
      }

      .cls-37 {
        fill: #97f65c;
      }

      .cls-38 {
        fill: #9f9ec3;
      }

      .cls-39 {
        fill: #9416d2;
      }

      .cls-40 {
        fill: #9ef095;
      }

      .cls-41 {
        fill: #a0ede7;
      }

      .cls-42, .cls-43 {
        fill: #bbbbc8;
      }

      .cls-44, .cls-45, .cls-46 {
        fill: #c6dbff;
      }

      .cls-47 {
        fill: #c3eefc;
      }

      .cls-48 {
        fill: #dcdfea;
      }

      .cls-49 {
        fill: #dd6b58;
      }

      .cls-50 {
        fill: #dadadc;
      }

      .cls-51 {
        fill: #dffadc;
      }

      .cls-52 {
        fill: #c8c8d6;
      }

      .cls-53 {
        fill: #1e1e30;
      }

      .cls-54 {
        fill: #113c47;
      }

      .cls-55 {
        fill: #4385f2;
      }

      .cls-56 {
        fill: #181828;
      }

      .cls-57 {
        fill: #58ebff;
      }

      .cls-58, .cls-59 {
        fill: #385159;
      }

      .cls-60, .cls-61 {
        fill: #2564bf;
      }

      .cls-62 {
        fill: #56d844;
      }

      .cls-63 {
        fill: #3b5e66;
      }

      .cls-64 {
        fill: #61838e;
      }

      .cls-65 {
        fill: #5cbddf;
      }

      .cls-66 {
        fill: #7495a2;
      }

      .cls-67 {
        fill: #24d359;
      }

      .cls-4 {
        stroke: #385159;
      }

      .cls-5, .cls-10 {
        stroke-width: 1.14px;
      }

      .cls-5, .cls-14 {
        stroke: #fc2b79;
      }

      .cls-28 {
        opacity: .3;
      }

      .cls-28, .cls-59, .cls-26, .cls-68, .cls-61, .cls-45, .cls-29, .cls-46, .cls-43 {
        isolation: isolate;
      }

      .cls-6 {
        stroke: #efefef;
      }

      .cls-6, .cls-8 {
        stroke-width: 1.14px;
      }

      .cls-7, .cls-9, .cls-13 {
        stroke-width: 1.14px;
      }

      .cls-11, .cls-12 {
        stroke-width: 2.57px;
      }

      .cls-11, .cls-16 {
        stroke: #5cbddf;
      }

      .cls-12 {
        stroke: #7495a2;
      }

      .cls-13 {
        stroke: #b2c9d6;
      }

      .cls-59 {
        opacity: .8;
      }

      .cls-26, .cls-68, .cls-61, .cls-45, .cls-69 {
        opacity: .5;
      }

      .cls-68 {
        fill: #3771c4;
      }

      .cls-29 {
        opacity: .59;
      }

      .cls-46 {
        opacity: .25;
      }

      .cls-43 {
        opacity: .4;
      }

      .cls-14, .cls-15 {
        stroke-miterlimit: 10;
      }

      .cls-15 {
        stroke: #fdcd30;
      }

      .cls-16 {
        stroke-width: 2px;
      }

      .cls-70 {
        opacity: .15;
      }

      .cls-71 {
        opacity: .6;
      }

      .cls-17, .cls-18, .cls-21 {
        stroke-width: .86px;
      }

      .cls-19 {
        stroke-width: 1.71px;
      }

      .cls-20 {
        stroke-width: 2.28px;
      }

      .cls-21 {
        stroke: #dffadc;
      }
    </style>
  </defs>
  <g id="Layer_1-2" data-name="Layer 1">
    <g id="Layer_2-2" data-name="Layer 2">
      <g id="Layer_1-2" data-name="Layer 1-2">
        <path class="cls-67" d="M128.19,27.74l-3.74,1.82,3.6,1.77c-.36,4.63-1.44,9.17-3.2,13.46,0,0-7.6-8.6-9.38-20.34s2.94-22.21,2.94-22.21c0,0,7.6,8.59,9.38,20.34,.25,1.71,.38,3.43,.4,5.16Z"/>
        <path class="cls-25" d="M128.2,31.7c-.67,3.91-1.77,7.74-3.29,11.4-2.2-2.64-4.14-5.5-5.78-8.53,3.18-.36,6.26-1.34,9.07-2.87Z"/>
        <path class="cls-26" d="M128.39,31.09c0,.28,0,.56-.08,.84-2.91,1.44-6.03,2.4-9.25,2.83-1.28-2.72-2.24-5.58-2.88-8.52,1.53,1.68,4.32,3.49,9.16,3.36l3.05,1.49Z"/>
        <ellipse class="cls-25" cx="118.8" cy="26.79" rx=".55" ry="1.17" transform="translate(69.41 138.11) rotate(-78.78)"/>
        <circle class="cls-25" cx="120.46" cy="25.97" r=".37"/>
        <path class="cls-37" d="M124.21,37.47c-.14,0-.26-.1-.28-.23l-4.22-27.93c-.02-.15,.08-.29,.22-.31,0,0,0,0,0,0,.15-.02,.29,.08,.31,.22,0,0,0,0,0,0l4.23,27.92c.02,.15-.08,.29-.23,.32h-.04Z"/>
        <path class="cls-56" d="M123.66,37.55c-.14,0-.25-.09-.27-.23l-4.23-27.92c-.02-.15,.08-.29,.23-.32,.15-.02,.29,.08,.31,.22,0,0,0,0,0,0l4.23,27.93c.02,.15-.08,.29-.22,.31,0,0,0,0,0,0h-.04Z"/>
        <path class="cls-27" d="M116.23,16.36h0c-.25-.03-.44-.25-.42-.5,0-.32,.72-7.87,2.61-12.64,.09-.23,.35-.34,.58-.26,.23,.09,.35,.36,.26,.59-1.85,4.65-2.55,12.3-2.55,12.38-.02,.25-.23,.44-.48,.43Z"/>
        <path class="cls-56" d="M125,45.22c-.19,0-.37-.08-.49-.22-4.92-5.94-8.19-13.07-9.51-20.67-.99-7.65,.04-15.43,3-22.56,.13-.32,.5-.48,.82-.34,.1,.04,.18,.1,.25,.18,4.93,5.94,8.21,13.07,9.53,20.67,.26,1.73,.4,3.49,.41,5.24,0,.25-.14,.48-.37,.59l-2.55,1.24,2.42,1.19c.24,.12,.38,.37,.36,.63-.37,4.7-1.46,9.31-3.25,13.67-.09,.2-.28,.34-.5,.37h-.12ZM118.75,3.28c-1.08,2.86-3.9,11.49-2.48,20.86,1.42,9.37,6.67,16.78,8.55,19.18,1.42-3.8,2.33-7.78,2.71-11.82l-3.21-1.54c-.22-.11-.36-.33-.36-.58,0-.25,.14-.47,.36-.58l3.37-1.64c-.03-1.56-.16-3.12-.39-4.66-1.42-9.41-6.67-16.82-8.55-19.22Z"/>
        <ellipse class="cls-37" cx="117.95" cy="19.28" rx=".74" ry=".37" transform="translate(56.98 122.07) rotate(-68.61)"/>
        <ellipse class="cls-37" cx="119.07" cy="7.27" rx=".32" ry=".64" transform="translate(.25 17.91) rotate(-8.61)"/>
        <path class="cls-37" d="M118.37,20.26c-.06-.02-.12-.02-.18,0h-.1c-.24,.05-.4,.26-.4,.5,.02,.13,.07,.25,.13,.36,.07,.17,0,.19-.08,.34-.1,.24-.03,.52,.18,.67,.34,.24,.81,.16,1.05-.18,.06-.09,.1-.18,.12-.28,.09-.58-.2-1.14-.72-1.41Z"/>
        <path class="cls-37" d="M118.34,13.2c.06-.02,.12-.02,.18,0h.1c.23,.07,.37,.29,.35,.53-.02,.13-.08,.25-.15,.35-.09,.17,0,.19,.05,.35,.08,.24-.01,.51-.23,.65-.36,.21-.82,.1-1.03-.26-.05-.09-.09-.19-.1-.29-.04-.58,.3-1.11,.83-1.33Z"/>
        <circle class="cls-37" cx="118.08" cy="12.73" r=".18"/>
        <path class="cls-56" d="M121.26,21.26c-.1,0-.19-.05-.24-.13-.08-.13-.04-.29,.09-.37,0,0,0,0,.01,0l3.36-2c.12-.09,.3-.07,.39,.05,.09,.12,.07,.3-.05,.39-.02,.01-.04,.03-.06,.03l-3.36,2-.14,.03Z"/>
        <path class="cls-56" d="M120.51,16.34c-.11,0-.2-.06-.25-.15-.06-.14,0-.3,.13-.37l2-1c.13-.07,.3-.02,.37,.11,0,0,0,0,0,0,.07,.13,.02,.3-.11,.37,0,0,0,0,0,0l-2,1s-.08,.03-.13,.03Z"/>
        <path class="cls-56" d="M122.72,32.6h0l-2.24-.38c-.15-.04-.24-.19-.21-.34,.03-.14,.16-.23,.31-.21l2.23,.39c.15,.02,.25,.16,.22,.31,0,0,0,0,0,0-.03,.14-.17,.24-.31,.22Z"/>
        <path class="cls-56" d="M121.55,24.96h-.07l-3.77-1c-.15-.04-.24-.19-.2-.34,.03-.15,.18-.24,.32-.2,0,0,0,0,0,0l3.78,1c.15,.04,.24,.19,.2,.34-.03,.12-.14,.2-.27,.21h0Z"/>
        <path class="cls-67" d="M133.89,38.06l3.74,1.82-3.63,1.77c.36,4.63,1.44,9.17,3.2,13.46,0,0,7.6-8.6,9.38-20.34s-2.94-22.21-2.94-22.21c0,0-7.59,8.59-9.37,20.34-.25,1.71-.38,3.43-.38,5.16Z"/>
        <path class="cls-25" d="M133.87,42.02c.67,3.91,1.77,7.73,3.29,11.4,2.21-2.64,4.14-5.5,5.78-8.53-3.18-.37-6.26-1.34-9.07-2.87Z"/>
        <path class="cls-26" d="M133.68,41.41c0,.28,0,.56,.08,.84,2.9,1.44,6.03,2.4,9.24,2.83,1.28-2.72,2.25-5.58,2.88-8.52-1.53,1.68-4.31,3.49-9.16,3.36l-3.04,1.49Z"/>
        <ellipse class="cls-25" cx="143.29" cy="37.1" rx="1.17" ry=".55" transform="translate(-4.48 28.59) rotate(-11.22)"/>
        <circle class="cls-25" cx="141.62" cy="36.29" r=".37"/>
        <path class="cls-37" d="M137.87,47.79h0c-.15-.02-.25-.15-.23-.3,0,0,0-.01,0-.02l4.22-27.92c.03-.15,.17-.25,.32-.23,.15,.02,.25,.16,.23,.3,0,0,0,0,0,0l-4.27,27.93c-.02,.13-.14,.23-.27,.23Z"/>
        <path class="cls-56" d="M138.42,47.87h0c-.15-.02-.25-.16-.23-.3,0,0,0,0,0,0l4.23-27.93c.02-.15,.16-.25,.3-.23,0,0,0,0,0,0,.15,.03,.26,.17,.24,.32l-4.23,27.92c-.02,.15-.15,.25-.3,.23,0,0-.01,0-.02,0Z"/>
        <path class="cls-27" d="M145.85,26.68c-.24,0-.44-.18-.46-.42,0-.08-.71-7.74-2.55-12.38-.12-.23-.03-.5,.2-.62,.23-.12,.5-.03,.62,.2,.01,.03,.03,.06,.03,.08,1.9,4.77,2.59,12.32,2.61,12.64,.02,.25-.16,.47-.41,.5h-.04Z"/>
        <path class="cls-56" d="M137.07,55.54h-.07c-.22-.03-.4-.17-.49-.37-1.79-4.36-2.89-8.97-3.26-13.67-.02-.26,.12-.51,.36-.63l2.39-1.2-2.55-1.24c-.22-.11-.36-.34-.36-.59,.01-1.76,.14-3.51,.4-5.25,1.32-7.59,4.6-14.7,9.51-20.63,.15-.16,.36-.24,.58-.21,.21,.04,.4,.18,.49,.38,2.95,7.13,3.98,14.91,3,22.56-1.31,7.61-4.6,14.73-9.53,20.67-.13,.12-.3,.19-.47,.18Zm-2.52-13.72c.38,4.04,1.29,8.02,2.71,11.82,1.88-2.4,7.13-9.81,8.55-19.18s-1.41-18-2.49-20.86c-1.88,2.41-7.13,9.82-8.55,19.19-.23,1.54-.36,3.1-.39,4.66l3.37,1.64c.32,.15,.46,.53,.31,.85-.06,.14-.17,.25-.31,.31l-3.2,1.57Z"/>
        <ellipse class="cls-37" cx="144.12" cy="29.59" rx=".37" ry=".74" transform="translate(-.86 54.6) rotate(-21.39)"/>
        <ellipse class="cls-37" cx="143.01" cy="17.58" rx=".64" ry=".32" transform="translate(104.22 156.35) rotate(-81.39)"/>
        <path class="cls-37" d="M143.71,30.58c.05-.02,.12-.02,.17,0h.12c.23,.05,.4,.26,.39,.5-.01,.13-.06,.25-.13,.36-.07,.17,0,.19,.09,.34,.09,.24,.02,.51-.19,.67-.34,.23-.81,.14-1.04-.2-.06-.09-.1-.19-.12-.29-.07-.56,.21-1.11,.71-1.38Z"/>
        <path class="cls-37" d="M143.73,23.51c-.06-.02-.11-.02-.17,0h-.11c-.23,.07-.37,.29-.35,.53,.03,.13,.08,.25,.16,.35,.08,.17,0,.19-.06,.35-.08,.24,.01,.51,.23,.65,.36,.21,.82,.1,1.03-.26,.05-.09,.09-.19,.1-.29,.04-.58-.3-1.11-.83-1.33Z"/>
        <circle class="cls-37" cx="144" cy="23.05" r=".18"/>
        <path class="cls-56" d="M140.82,31.58s-.09,.01-.14,0l-3.37-2c-.13-.08-.17-.25-.09-.38,.07-.13,.24-.17,.37-.1,0,0,0,0,0,0l3.37,2c.13,.08,.17,.25,.1,.38-.06,.07-.15,.11-.24,.1Z"/>
        <path class="cls-56" d="M141.56,26.66s-.08,0-.12,0l-2-1c-.13-.07-.19-.23-.12-.36,0,0,0,0,0,0,.07-.13,.23-.19,.37-.12l2,1c.13,.07,.19,.23,.12,.36,0,0,0,0,0,0-.05,.08-.15,.13-.25,.12Z"/>
        <path class="cls-56" d="M139.35,42.96c-.13,0-.25-.1-.27-.23-.03-.15,.06-.29,.21-.32,0,0,0,0,0,0l2.24-.39c.15-.02,.29,.08,.32,.23,.02,.15-.08,.29-.23,.32l-2.23,.39h-.05Z"/>
        <path class="cls-56" d="M140.52,35.31c-.12,0-.23-.09-.27-.21-.03-.15,.05-.3,.2-.34l3.78-1c.15-.05,.31,.02,.36,.17s-.02,.31-.17,.36c-.02,0-.03,0-.05,.01l-3.78,1h-.07Z"/>
        <path class="cls-67" d="M137.23,29.39l-4,1.25,3.3,2.29c-1.05,4.52-2.8,8.84-5.18,12.82,0,0-6.23-9.63-6.23-21.51s6.23-21.52,6.23-21.52c0,0,6.23,9.64,6.23,21.52,0,1.72-.11,3.44-.35,5.15Z"/>
        <path class="cls-25" d="M136.65,33.31c-1.26,3.77-2.93,7.39-5,10.78-1.78-2.94-3.27-6.05-4.43-9.29,3.21,.12,6.41-.39,9.43-1.49Z"/>
        <path class="cls-26" d="M136.93,32.74c-.06,.28-.13,.55-.2,.82-3.09,.98-6.33,1.45-9.57,1.4-.85-2.89-1.38-5.86-1.57-8.86,1.26,1.89,3.74,4.1,8.55,4.69l2.79,1.95Z"/>
        <ellipse class="cls-25" cx="128.08" cy="27.05" rx=".55" ry="1.17" transform="translate(59.18 138.36) rotate(-70.17)"/>
        <circle class="cls-25" cx="129.85" cy="26.5" r=".37"/>
        <path class="cls-37" d="M131.88,38.43c-.15,0-.27-.13-.28-.28V9.96c0-.15,.12-.28,.28-.28,.15,0,.28,.12,.28,.28h0v28.19c0,.15-.13,.27-.28,.28Z"/>
        <path class="cls-56" d="M131.33,38.43c-.15,0-.27-.13-.28-.28V9.96c0-.15,.13-.27,.28-.28,.15,0,.27,.13,.27,.28v28.19c0,.15-.12,.27-.27,.28Z"/>
        <path class="cls-27" d="M127.18,16.36h-.11c-.25-.06-.4-.31-.34-.56,.08-.31,1.89-7.67,4.48-12.1,.13-.22,.41-.29,.63-.17,.22,.13,.29,.41,.16,.63-2.51,4.32-4.35,11.78-4.37,11.86-.05,.2-.24,.34-.45,.34Z"/>
        <path class="cls-56" d="M131.57,46.21c-.22,.02-.44-.07-.57-.25-3.99-6.61-6.17-14.15-6.34-21.87,.16-7.73,2.35-15.28,6.34-21.9,.12-.19,.32-.3,.54-.3h0c.22,0,.42,.12,.54,.3,3.98,6.61,6.16,14.15,6.33,21.86,0,1.76-.13,3.51-.39,5.25-.03,.25-.2,.45-.44,.53l-2.71,.85,2.21,1.53c.22,.15,.33,.42,.27,.68-1.07,4.58-2.85,8.97-5.27,13-.11,.18-.3,.3-.51,.32Zm0-42.4c-1.5,2.65-5.57,10.77-5.57,20.24s4.09,17.6,5.59,20.25c1.96-3.55,3.44-7.34,4.41-11.28l-2.94-2c-.2-.14-.31-.39-.27-.63,.04-.24,.21-.44,.44-.52l3.58-1.12c.21-1.55,.32-3.11,.32-4.67,.02-9.5-4.06-17.62-5.56-20.27Z"/>
        <ellipse class="cls-37" cx="128.37" cy="19.49" rx=".74" ry=".37" transform="translate(47.3 120.92) rotate(-60)"/>
        <ellipse class="cls-37" cx="131.28" cy="7.79" rx=".32" ry=".64"/>
        <path class="cls-37" d="M128.64,20.53c-.06-.02-.11-.02-.17,0h-.11c-.24,.01-.44,.2-.46,.44,0,.13,.02,.25,.07,.37,.05,.18,0,.19-.13,.33-.13,.22-.1,.5,.08,.68,.29,.29,.75,.3,1.05,.01,.08-.08,.15-.18,.18-.29,.19-.57-.02-1.2-.51-1.54Z"/>
        <path class="cls-37" d="M129.67,13.54c.06-.02,.12-.02,.18,0h.1c.21,.11,.32,.35,.26,.58-.04,.12-.11,.23-.2,.32-.11,.15,0,.19,0,.35,.05,.25-.09,.5-.32,.61-.39,.14-.82-.07-.96-.46-.03-.08-.04-.17-.04-.25,.07-.55,.45-1,.98-1.15Z"/>
        <circle class="cls-37" cx="129.49" cy="13.04" r=".18"/>
        <path class="cls-56" d="M131.39,21.96c-.11,0-.21-.07-.26-.17-.05-.14,.02-.3,.16-.36l3.62-1.47c.14-.05,.3,.02,.36,.16,.06,.14-.01,.3-.15,.36l-3.63,1.48h-.1Z"/>
        <path class="cls-56" d="M131.39,16.96c-.15,.01-.28-.1-.29-.25,0-.13,.07-.25,.2-.28l2.15-.72c.14-.05,.3,.03,.35,.17,.05,.14-.02,.3-.16,.35,0,0,0,0,0,0l-2.15,.72h-.09Z"/>
        <path class="cls-56" d="M131.14,33.39h-.08l-2.15-.72c-.14-.04-.22-.18-.19-.32,0,0,0-.02,0-.02,.05-.15,.2-.23,.35-.18l2.15,.72c.15,.05,.23,.2,.18,.35-.05,.11-.15,.17-.27,.17Z"/>
        <path class="cls-56" d="M131.13,25.69s-.07,.01-.11,0l-3.59-1.53c-.14-.06-.21-.22-.15-.36,.06-.14,.23-.21,.37-.15l3.59,1.54c.14,.06,.2,.22,.14,.35,0,0,0,0,0,0-.05,.09-.15,.14-.25,.14Z"/>
        <path class="cls-50" d="M117.88,45.11h27.46v8.57c0,7.58-6.15,13.73-13.73,13.73h0c-7.58,0-13.73-6.15-13.73-13.73v-8.57h0Z"/>
        <path class="cls-42" d="M145.33,45.11v8.57c0,7.58-6.16,13.73-13.74,13.72-4.65,0-8.98-2.36-11.51-6.26,6.36,4.13,14.86,2.31,18.99-4.05,1.44-2.22,2.21-4.82,2.21-7.47v-4.51h4.05Z"/>
        <path class="cls-43" d="M141.46,45.11v8.57c0,7.58-5.2,13.73-11.62,13.73-4.09,0-7.68-2.5-9.75-6.27,1.8,1.42,4.03,2.2,6.32,2.21,6.42,0,11.62-6.14,11.62-13.73v-4.51h3.43Z"/>
        <path class="cls-56" d="M131.7,68.14c-7.94,0-14.37-6.43-14.38-14.37v-8.57c0-.36,.29-.65,.65-.65h27.46c.36,0,.64,.29,.64,.65v8.57c-.01,7.93-6.44,14.36-14.37,14.37Zm-13.09-22.3v7.93c.2,7.23,6.22,12.92,13.45,12.72,6.95-.19,12.53-5.78,12.72-12.72v-7.93h-26.17Z"/>
        <ellipse class="cls-36" cx="124.49" cy="50.82" rx="4.48" ry="3.32" transform="translate(-9.95 53.27) rotate(-23.25)"/>
        <path class="cls-56" d="M126,48.52h-7.74c-.15,0-.28-.13-.28-.28s.13-.28,.28-.28h7.74c.15,0,.28,.13,.28,.28s-.13,.28-.28,.28Z"/>
        <path class="cls-56" d="M130.68,48.61h-2.39c-.15,.03-.3-.07-.33-.22-.03-.15,.07-.3,.22-.33,.03,0,.07,0,.11,0h2.39c.15-.03,.3,.07,.33,.22s-.07,.3-.22,.33c-.03,0-.07,0-.11,0Z"/>
        <g class="cls-22">
          <path class="cls-56" d="M141,68.65h-19.35c-.25,0-.45-.21-.46-.46,0-.25,.21-.46,.46-.46h19.35c.25,0,.45,.19,.46,.44,0,0,0,.01,0,.02,0,.25-.21,.46-.46,.46h0Z"/>
          <path class="cls-56" d="M152.7,68.65h-6c-.25,0-.45-.21-.46-.46,0-.25,.21-.46,.46-.46h6c.25,0,.45,.19,.46,.44,0,0,0,.01,0,.02,0,.25-.21,.46-.46,.46h0Z"/>
        </g>
        <rect class="cls-50" x="114.74" y="38.29" width="34.28" height="7.19" rx="3.59" ry="3.59"/>
        <path class="cls-42" d="M148.28,41.88c0,1.98-1.61,3.59-3.59,3.6h-4.24c1.99-.1,3.51-1.8,3.41-3.78-.1-1.84-1.57-3.31-3.41-3.41h4.24c1.98,0,3.59,1.61,3.59,3.59Z"/>
        <path class="cls-43" d="M144.6,41.88c-.01,1.98-1.62,3.59-3.6,3.6h-4.24c1.99,.1,3.68-1.42,3.78-3.41,.1-1.99-1.42-3.68-3.41-3.78-.13,0-.25,0-.38,0h4.24c1.98,0,3.59,1.61,3.6,3.59Z"/>
        <path class="cls-27" d="M129.85,39.67h-12c-.36,.04-.68-.21-.73-.56s.21-.68,.56-.73c.05,0,.11,0,.16,0h12c.36-.04,.68,.21,.73,.56s-.21,.68-.56,.73c-.05,0-.11,0-.16,0Z"/>
        <path class="cls-56" d="M145.24,46.03h-27.09c-2.29-.11-4.05-2.06-3.94-4.35,.1-2.13,1.81-3.84,3.94-3.94h27.09c2.29-.11,4.24,1.65,4.35,3.94,.11,2.29-1.65,4.24-3.94,4.35-.14,0-.27,0-.41,0Zm-27.09-7.19c-1.68,0-3.04,1.36-3.04,3.04s1.36,3.04,3.04,3.04h27.09c1.68,0,3.04-1.36,3.04-3.04s-1.36-3.04-3.04-3.04h-27.09Z"/>
        <circle class="cls-27" cx="119.26" cy="39.86" r=".55"/>
        <circle class="cls-27" cx="120.36" cy="41.15" r=".28"/>
        <circle class="cls-27" cx="121.1" cy="39.67" r=".46"/>
        <circle class="cls-27" cx="122.57" cy="41.15" r=".28"/>
        <circle class="cls-27" cx="123.96" cy="39.95" r=".74"/>
        <circle class="cls-27" cx="126.63" cy="40.59" r=".28"/>
        <circle class="cls-27" cx="128.29" cy="40.22" r="1.01"/>
        <circle class="cls-27" cx="125.25" cy="41.79" r=".37"/>
        <path class="cls-56" d="M113.08,35.71c-.82,0-1.48-.66-1.48-1.48,0-.82,.66-1.48,1.48-1.48,.82,0,1.48,.66,1.48,1.48,0,0,0,0,0,0,0,.81-.66,1.47-1.47,1.47,0,0,0,0-.01,0Zm0-2.4c-.51,0-.93,.42-.93,.93s.42,.93,.93,.93,.93-.42,.93-.93-.42-.93-.93-.93h0Z"/>
        <path class="cls-56" d="M152,31.66c-.82,0-1.48-.65-1.49-1.47,0-.82,.65-1.48,1.47-1.49,.82,0,1.48,.65,1.49,1.47,0,0,0,0,0,0,0,.81-.66,1.47-1.47,1.48Zm0-2.4c-.51,0-.92,.41-.92,.92s.41,.92,.92,.92c.51,0,.92-.41,.92-.92h0c0-.51-.41-.92-.92-.92h0Z"/>
        <path class="cls-56" d="M126,2.96c-.82,0-1.48-.66-1.48-1.48S125.18,0,126,0c.82,0,1.48,.66,1.48,1.48,0,.81-.65,1.47-1.46,1.48,0,0-.01,0-.02,0Zm0-2.4c-.51,.05-.88,.51-.83,1.02,.05,.44,.39,.78,.83,.83,.51,0,.93-.42,.93-.93h0c.02-.51-.38-.95-.89-.97-.01,0-.03,0-.04,0v.05Z"/>
        <path class="cls-34" d="M59.38,156.12h-19c-.55,0-1-.45-1-1s.45-1,1-1h19c.55,0,1,.45,1,1s-.45,1-1,1Z"/>
        <path class="cls-34" d="M69.62,156.12h-4.73c-.55,0-1-.45-1-1s.45-1,1-1h4.73c.55,0,1,.45,1,1s-.45,1-1,1Z"/>
        <rect class="cls-49" x="29.59" y="152.19" width="161.51" height="7.67" rx="3.83" ry="3.83"/>
        <path class="cls-35" d="M75.55,154.47h-19c-.55,0-1-.45-1-1s.45-1,1-1h19c.55,0,1,.45,1,1s-.45,1-1,1Z"/>
        <path class="cls-35" d="M85.79,154.47h-4.74c-.55,0-1-.45-1-1s.45-1,1-1h4.74c.55,0,1,.45,1,1s-.45,1-1,1Z"/>
        <path class="cls-34" d="M51.94,159.86h-18.94c-.55,0-1-.45-1-1s.45-1,1-1h19c.55,0,1,.45,1,1s-.45,1-1,1h-.06Z"/>
        <path class="cls-34" d="M62.18,159.86h-4.73c-.55,0-1-.45-1-1s.45-1,1-1h4.73c.55,0,1,.45,1,1s-.45,1-1,1Z"/>
        <path class="cls-9" d="M122,152.19h65.29c2.12,0,3.83,1.71,3.84,3.83h0c0,2.12-1.72,3.84-3.84,3.84H33.42c-2.12,0-3.83-1.72-3.83-3.84h0c0-2.11,1.72-3.82,3.83-3.83H102.27"/>
        <line class="cls-9" x1="108.84" y1="152.19" x2="112.95" y2="152.19"/>
        <line class="cls-9" x1="116.59" y1="152.19" x2="118.71" y2="152.19"/>
        <path class="cls-40" d="M47.23,119.29S25.23,128.43,.89,93.89c0,0,26.18-8.78,50,15.91"/>
        <path class="cls-9" d="M11.11,106.68c-3.88-3.82-7.41-7.98-10.54-12.43,0,0,26.11-9,50.1,15.54"/>
        <path class="cls-62" d="M41.59,115.96l-7.59,4.13c-1.94-.37-3.84-.91-5.69-1.59-4.63-3.21-11.64-10.37-14.16-25.26l1.85,.12c4.25,21.79,18.26,26.15,18.26,26.15l7.26-3.92c.05,.14,.07,.27,.07,.37Z"/>
        <path class="cls-41" d="M107.33,26.96c0,3.21-2.6,5.82-5.81,5.83,0,0-.01,0-.02,0-.36,0-.72-.03-1.07-.09,3.16-.59,5.25-3.64,4.65-6.81-.44-2.36-2.29-4.21-4.65-4.65,.35-.07,.71-.1,1.07-.1,3.22,0,5.82,2.6,5.83,5.82Z"/>
        <line class="cls-9" x1="88.03" y1="26.58" x2="95.27" y2="26.58"/>
        <path class="cls-9" d="M74.22,47.16v-9.52c0-6.08,4.92-11.03,11-11.06"/>
        <circle class="cls-9" cx="101.35" cy="26.98" r="5.83"/>
        <circle class="cls-40" cx="101.35" cy="26.98" r="1.97"/>
        <circle class="cls-1" cx="101.35" cy="26.98" r="1.97"/>
        <path class="cls-17" d="M8.19,102.29c-1.28-1.23-2.47-2.55-3.57-3.94"/>
        <path class="cls-9" d="M22,115.16c-2.97-1.77-5.77-3.82-8.36-6.12"/>
        <path class="cls-9" d="M34.28,120.87c-3.29-1.07-6.48-2.45-9.51-4.12"/>
        <path class="cls-21" d="M49.27,113.33s-24.12-3.13-37.82-15.15"/>
        <line class="cls-21" x1="22.04" y1="105.09" x2="21.07" y2="97.15"/>
        <line class="cls-21" x1="25.46" y1="106.67" x2="20.47" y2="110.88"/>
        <line class="cls-21" x1="29.47" y1="110.28" x2="24.48" y2="114.49"/>
        <line class="cls-21" x1="33.69" y1="109.71" x2="32.38" y2="100.84"/>
        <g class="cls-70">
          <path class="cls-54" d="M45.51,30.8h-.11c-.33,0-.6-.27-.6-.6s.27-.6,.6-.6h.11c.33,0,.6,.27,.6,.6s-.27,.6-.6,.6Z"/>
          <path class="cls-54" d="M49.89,30.8h-2.4c-.33,0-.6-.27-.6-.6s.27-.6,.6-.6h1.2v-6H30v6h10.85c.33,0,.6,.27,.6,.6s-.27,.6-.6,.6h-12.08v-8.43h21.12v8.43Z"/>
          <path class="cls-54" d="M43.77,30.8h-1.06c-.33,0-.6-.27-.6-.6s.27-.6,.6-.6h1.06c.33,0,.6,.27,.6,.6s-.27,.6-.6,.6Z"/>
          <path class="cls-54" d="M33.77,45.25h-5v-8.43h14.86c.33,0,.6,.27,.6,.6s-.27,.6-.6,.6h-13.63v6h3.8c.33,0,.6,.27,.6,.6s-.27,.6-.6,.6l-.03,.03Z"/>
          <path class="cls-54" d="M37.69,45.25h-2.16c-.33,0-.6-.27-.6-.6s.27-.6,.6-.6h2.16c.33,0,.6,.27,.6,.6s-.27,.6-.6,.6Z"/>
          <path class="cls-54" d="M39.35,45.25h-.05c-.33,0-.6-.27-.6-.6s.27-.6,.6-.6h.05c.33,0,.6,.27,.6,.6s-.27,.6-.6,.6Z"/>
          <path class="cls-54" d="M49.89,45.25h-8.84c-.33,0-.6-.27-.6-.6s.27-.6,.6-.6h7.64v-6h-2.69c-.33,0-.6-.27-.6-.6s.27-.6,.6-.6h3.87l.02,8.4Z"/>
          <path class="cls-54" d="M39.77,38.02H18.65v-8.42h21.12v8.42Zm-19.92-1.2h18.72v-6H19.85v6Z"/>
        </g>
        <g class="cls-70">
          <path class="cls-54" d="M187.86,128.12h-.11c-.33,0-.6-.27-.6-.6,0-.33,.27-.6,.6-.6h.11c.33,0,.6,.27,.6,.6,0,.33-.27,.6-.6,.6Z"/>
          <path class="cls-54" d="M192.24,128.12h-2.4c-.33,0-.6-.27-.6-.6,0-.33,.27-.6,.6-.6h1.16v-6h-18.68v6h10.88c.33,0,.6,.27,.6,.6,0,.33-.27,.6-.6,.6h-12.08v-8.43h21.12v8.43Z"/>
          <path class="cls-54" d="M186.13,128.12h-1.07c-.33,0-.6-.27-.6-.6,0-.33,.27-.6,.6-.6h1.07c.33,0,.6,.27,.6,.6,0,.33-.27,.6-.6,.6Z"/>
          <path class="cls-54" d="M176.12,142.58h-5v-8.43h14.88c.33,0,.6,.27,.6,.6,0,.33-.27,.6-.6,.6h-13.68v6h3.8c.33,0,.6,.27,.6,.6h0c.02,.33-.24,.61-.57,.63-.01,0-.02,0-.03,0Z"/>
          <path class="cls-54" d="M180.05,142.58h-2.17c-.33,0-.6-.27-.6-.6h0c0-.33,.27-.6,.6-.6h2.17c.33,0,.6,.27,.6,.6h0c0,.33-.27,.6-.6,.6h0Z"/>
          <path class="cls-54" d="M181.7,142.58h0c-.33,0-.6-.27-.6-.6h0c0-.33,.27-.6,.6-.6h0c.33,0,.6,.27,.6,.6h0c0,.33-.27,.6-.6,.6h0Z"/>
          <path class="cls-54" d="M192.24,142.58h-8.84c-.33,0-.6-.27-.6-.6h0c0-.33,.27-.6,.6-.6h7.6v-6h-2.65c-.33,0-.6-.27-.6-.6,0-.33,.27-.6,.6-.6h3.87l.02,8.4Z"/>
          <path class="cls-54" d="M182.12,135.35h-21.12v-8.39h21.12v8.39Zm-19.92-1.2h18.72v-6h-18.72v6Z"/>
        </g>
        <g class="cls-70">
          <path class="cls-54" d="M86.81,130.81h-.11c-.33,0-.6-.27-.6-.6,0-.33,.27-.6,.6-.6h.11c.33,0,.6,.27,.6,.6,0,.33-.27,.6-.6,.6Z"/>
          <path class="cls-54" d="M91.19,130.81h-2.4c-.33,0-.6-.27-.6-.6,0-.33,.27-.6,.6-.6h1.21v-6h-18.73v6h10.88c.33,0,.6,.27,.6,.6,0,.33-.27,.6-.6,.6h-12.08v-8.43h21.12v8.43Z"/>
          <path class="cls-54" d="M85.08,130.81h-1.08c-.33,0-.6-.27-.6-.6,0-.33,.27-.6,.6-.6h1.07c.33,0,.6,.27,.6,.6,0,.33-.27,.6-.6,.6h.01Z"/>
          <path class="cls-54" d="M75.07,145.26h-5v-8.43h14.87c.33,0,.6,.27,.6,.6,0,.33-.27,.6-.6,.6h-13.67v6h3.8c.33,0,.6,.27,.6,.6,0,.33-.27,.6-.6,.6v.03Z"/>
          <path class="cls-54" d="M79,145.26h-2.17c-.33,0-.6-.27-.6-.6,0-.33,.27-.6,.6-.6h2.17c.33,0,.6,.27,.6,.6,0,.33-.27,.6-.6,.6Z"/>
          <path class="cls-54" d="M80.65,145.26h0c-.33,0-.6-.27-.6-.6,0-.33,.27-.6,.6-.6h0c.33,0,.6,.27,.6,.6,0,.33-.27,.6-.6,.6Z"/>
          <path class="cls-54" d="M91.19,145.26h-8.84c-.33,0-.6-.27-.6-.6,0-.33,.27-.6,.6-.6h7.65v-6h-2.66c-.33,0-.6-.27-.6-.6,0-.33,.27-.6,.6-.6h3.87l-.02,8.4Z"/>
          <path class="cls-54" d="M81.07,138.03h-21.07v-8.42h21.07v8.42Zm-19.92-1.2h18.72v-6h-18.72v6Z"/>
        </g>
        <g class="cls-70">
          <path class="cls-54" d="M182.35,30.8h-.11c-.33,0-.6-.27-.6-.6s.27-.6,.6-.6h.11c.33,0,.6,.27,.6,.6s-.27,.6-.6,.6Z"/>
          <path class="cls-54" d="M186.73,30.8h-2.4c-.33,0-.6-.27-.6-.6s.27-.6,.6-.6h1.2v-6h-18.72v6h10.88c.33,0,.6,.27,.6,.6s-.27,.6-.6,.6h-12.08v-8.43h21.12v8.43Z"/>
          <path class="cls-54" d="M180.62,30.8h-1.07c-.33,0-.6-.27-.6-.6s.27-.6,.6-.6h1.07c.33,0,.6,.27,.6,.6s-.27,.6-.6,.6Z"/>
          <path class="cls-54" d="M170.61,45.25h-5v-8.43h14.87c.33,0,.6,.27,.6,.6s-.27,.6-.6,.6h-13.67v6h3.8c.33,0,.6,.27,.6,.6s-.27,.6-.6,.6v.03Z"/>
          <path class="cls-54" d="M174.54,45.25h-2.17c-.33,0-.6-.27-.6-.6s.27-.6,.6-.6h2.17c.33,0,.6,.27,.6,.6s-.27,.6-.6,.6Z"/>
          <path class="cls-54" d="M176.19,45.25h-.05c-.33,0-.6-.27-.6-.6s.27-.6,.6-.6h.05c.33,0,.6,.27,.6,.6s-.27,.6-.6,.6Z"/>
          <path class="cls-54" d="M186.73,45.25h-8.84c-.33,0-.6-.27-.6-.6s.27-.6,.6-.6h7.64v-6h-2.65c-.33,0-.6-.27-.6-.6s.27-.6,.6-.6h3.87l-.02,8.4Z"/>
          <path class="cls-54" d="M176.61,38.02h-21.12v-8.42h21.12v8.42Zm-19.92-1.2h18.72v-6h-18.72v6Z"/>
        </g>
        <line class="cls-9" x1="107.37" y1="150.98" x2="111.49" y2="150.98"/>
        <line class="cls-9" x1="115.12" y1="150.98" x2="117.24" y2="150.98"/>
        <path class="cls-40" d="M34.81,119.25s-22.76-7.23-19.06-49.29c0,0,25.67,10.16,28,44.38"/>
        <path class="cls-51" d="M35.61,118.79l-1.22,.67s-22.75-7.23-19.06-49.3c.91,.39,1.81,.83,2.67,1.32-2.62,34.28,12.61,44.8,17.61,47.31Z"/>
        <path class="cls-17" d="M15.91,81.09c-.19-1.77-.25-3.54-.19-5.32"/>
        <path class="cls-62" d="M38.37,92.96v26.22l-2.79,1.54v-32.55c1.02,1.54,1.95,3.14,2.79,4.79Z"/>
        <path class="cls-9" d="M15.32,86.33c-.51-5.42-.52-10.88-.05-16.3,0,0,25.73,9.93,28.29,44.17"/>
        <path class="cls-9" d="M18.2,99.84c-1.14-3.27-1.96-6.64-2.45-10.06"/>
        <path class="cls-9" d="M34.7,119.18s-9.64-3-15.46-16.64"/>
        <path class="cls-21" d="M40.21,116.01s-16.43-17.94-19.16-36"/>
        <path class="cls-55" d="M61.29,134.71c-.01,10.49-8.53,18.99-19.03,18.97-10.49-.01-18.99-8.53-18.97-19.03,0-6.75,3.6-12.99,9.43-16.39h19.11c5.86,3.4,9.46,9.67,9.46,16.44Z"/>
        <path class="cls-60" d="M61.1,134.71c0,10.49-8.51,19-19,19-.63,0-1.26,0-1.87-.09,10.44-1.02,18.09-10.31,17.07-20.75-.59-6.1-4.09-11.54-9.4-14.61h3.76c5.85,3.41,9.45,9.68,9.44,16.45Z"/>
        <path class="cls-61" d="M57.41,134.77c-.08,10.61-8.74,19.15-19.35,19.07h0c-.64,0-1.28,0-1.91-.09,10.46-.83,18.27-9.98,17.44-20.44-.5-6.29-4.09-11.93-9.59-15.04h3.83c5.92,3.38,9.58,9.68,9.58,16.5Z"/>
        <path class="cls-44" d="M43.56,153.66c-.5,0-1,.06-1.52,.06-10.49,.02-19.02-8.46-19.04-18.96-.02-6.8,3.6-13.09,9.49-16.49h3c-9.09,5.25-12.19,16.87-6.94,25.96,3.13,5.41,8.71,8.94,14.94,9.43h.07Z"/>
        <path class="cls-9" d="M61.29,134.71c-.01,10.49-8.53,18.99-19.03,18.97-10.49-.01-18.99-8.53-18.97-19.03,0-6.75,3.6-12.99,9.43-16.39h19.11c5.86,3.4,9.46,9.67,9.46,16.44Z"/>
        <rect class="cls-55" x="167.18" y="67.65" width="44.17" height="33.15" transform="translate(52.92 240.19) rotate(-72.83)"/>
        <rect class="cls-8" x="167.18" y="67.65" width="44.17" height="33.15" transform="translate(52.92 240.19) rotate(-72.83)"/>
        <line class="cls-7" x1="182.87" y1="65.26" x2="200.03" y2="70.56"/>
        <line class="cls-7" x1="181.71" y1="69.03" x2="192.5" y2="72.36"/>
        <rect class="cls-6" x="186.35" y="68.67" width="8.66" height="24.05" transform="translate(57.3 239.06) rotate(-72.83)"/>
        <polygon class="cls-68" points="197.07 104.86 165.16 101.68 169.37 56.51 200.85 65.26 197.07 104.86"/>
        <line class="cls-13" x1="176.63" y1="85.46" x2="187.42" y2="88.8"/>
        <line class="cls-13" x1="175.59" y1="88.82" x2="186.39" y2="92.15"/>
        <rect class="cls-27" x="157.84" y="62.2" width="44.17" height="33.15" transform="translate(84.77 250.61) rotate(-84.67)"/>
        <rect class="cls-41" x="176.82" y="83.03" width="2.35" height="33.15" transform="translate(62.28 267.58) rotate(-84.67)"/>
        <rect class="cls-10" x="157.84" y="62.2" width="44.17" height="33.15" transform="translate(84.77 250.61) rotate(-84.67)"/>
        <line class="cls-13" x1="169.78" y1="61.52" x2="187.66" y2="63.18"/>
        <line class="cls-13" x1="169.42" y1="65.45" x2="180.66" y2="66.5"/>
        <line class="cls-13" x1="167.82" y1="82.57" x2="179.07" y2="83.62"/>
        <line class="cls-13" x1="167.49" y1="86.07" x2="178.74" y2="87.12"/>
        <rect class="cls-5" x="176.27" y="63.01" width="8.66" height="24.05" transform="translate(89.12 247.88) rotate(-84.67)"/>
        <path class="cls-63" d="M47.15,36.88h125.73c2.7,0,4.88,2.18,4.88,4.88h0v88.56c0,2.56-2.07,4.63-4.63,4.63H46.91c-2.56,0-4.63-2.07-4.63-4.63h0V41.76c0-2.69,2.18-4.87,4.87-4.88Z"/>
        <path class="cls-9" d="M47.15,36.88h125.73c2.7,0,4.88,2.18,4.88,4.88h0v88.56c0,2.56-2.07,4.63-4.63,4.63H46.91c-2.56,0-4.63-2.07-4.63-4.63h0V41.76c0-2.69,2.18-4.87,4.87-4.88Z"/>
        <path class="cls-38" d="M131,151.64h-39.85c-1.46,0-2.64-1.18-2.64-2.64,0-.34,.06-.67,.19-.98l7.39-18.55,15-4.11,15,4.11,7.39,18.55c.54,1.35-.12,2.89-1.47,3.43-.32,.13-.66,.19-1.01,.19Z"/>
        <path class="cls-9" d="M131,151.64h-39.85c-1.46,0-2.64-1.18-2.64-2.64,0-.34,.06-.67,.19-.98l7.39-18.55,15-4.11,15,4.11,7.39,18.55c.54,1.35-.12,2.89-1.47,3.43-.32,.13-.66,.19-1.01,.19Z"/>
        <path class="cls-52" d="M126.31,151.64h-39.87c-1.46,0-2.63-1.19-2.63-2.65,0-.33,.07-.66,.19-.97l7.39-18.55,15-4.11,15,4.11,7.38,18.55c.54,1.35-.12,2.89-1.47,3.43-.31,.13-.65,.19-.99,.19Z"/>
        <polygon class="cls-38" points="124.41 137.18 88.77 137.18 89.12 134.82 124.06 134.82 124.41 137.18"/>
        <circle class="cls-38" cx="92.13" cy="137.53" r="1.25"/>
        <circle class="cls-38" cx="95.91" cy="139.2" r=".64"/>
        <circle class="cls-38" cx="93.21" cy="141.56" r=".83"/>
        <path class="cls-9" d="M126.31,151.64h-39.87c-1.46,0-2.63-1.19-2.63-2.65,0-.33,.07-.66,.19-.97l7.39-18.55,15-4.11,15,4.11,7.38,18.55c.54,1.35-.12,2.89-1.47,3.43-.31,.13-.65,.19-.99,.19Z"/>
        <path class="cls-52" d="M126.31,151.64h-39.87c-1.46,0-2.63-1.19-2.63-2.65,0-.33,.07-.66,.19-.97l7.39-18.55,15-4.11,15,4.11,7.38,18.55c.54,1.35-.12,2.89-1.47,3.43-.31,.13-.65,.19-.99,.19Z"/>
        <path class="cls-9" d="M126.31,151.64h-39.87c-1.46,0-2.63-1.19-2.63-2.65,0-.33,.07-.66,.19-.97l7.39-18.55,15-4.11,15,4.11,7.38,18.55c.54,1.35-.12,2.89-1.47,3.43-.31,.13-.65,.19-.99,.19Z"/>
        <path class="cls-52" d="M126.31,151.64h-39.87c-1.46,0-2.63-1.19-2.63-2.65,0-.33,.07-.66,.19-.97l7.39-18.55,15-4.11,15,4.11,7.38,18.55c.54,1.35-.12,2.89-1.47,3.43-.31,.13-.65,.19-.99,.19Z"/>
        <path class="cls-9" d="M126.31,151.64h-39.87c-1.46,0-2.63-1.19-2.63-2.65,0-.33,.07-.66,.19-.97l7.39-18.55,15-4.11,15,4.11,7.38,18.55c.54,1.35-.12,2.89-1.47,3.43-.31,.13-.65,.19-.99,.19Z"/>
        <path class="cls-52" d="M126.31,151.64h-39.87c-1.46,0-2.63-1.19-2.63-2.65,0-.33,.07-.66,.19-.97l7.39-18.55,15-4.11,15,4.11,7.38,18.55c.54,1.35-.12,2.89-1.47,3.43-.31,.13-.65,.19-.99,.19Z"/>
        <path class="cls-9" d="M126.31,151.64h-39.87c-1.46,0-2.63-1.19-2.63-2.65,0-.33,.07-.66,.19-.97l7.39-18.55,15-4.11,15,4.11,7.38,18.55c.54,1.35-.12,2.89-1.47,3.43-.31,.13-.65,.19-.99,.19Z"/>
        <path class="cls-52" d="M126.31,151.64h-39.87c-1.46,0-2.63-1.19-2.63-2.65,0-.33,.07-.66,.19-.97l7.39-18.55,15-4.11,15,4.11,7.38,18.55c.54,1.35-.12,2.89-1.47,3.43-.31,.13-.65,.19-.99,.19Z"/>
        <path class="cls-9" d="M126.31,151.64h-39.87c-1.46,0-2.63-1.19-2.63-2.65,0-.33,.07-.66,.19-.97l7.39-18.55,15-4.11,15,4.11,7.38,18.55c.54,1.35-.12,2.89-1.47,3.43-.31,.13-.65,.19-.99,.19Z"/>
        <path class="cls-52" d="M126.31,151.64h-39.87c-1.46,0-2.63-1.19-2.63-2.65,0-.33,.07-.66,.19-.97l7.39-18.55,15-4.11,15,4.11,7.38,18.55c.54,1.35-.12,2.89-1.47,3.43-.31,.13-.65,.19-.99,.19Z"/>
        <path class="cls-9" d="M126.31,151.64h-39.87c-1.46,0-2.63-1.19-2.63-2.65,0-.33,.07-.66,.19-.97l7.39-18.55,15-4.11,15,4.11,7.38,18.55c.54,1.35-.12,2.89-1.47,3.43-.31,.13-.65,.19-.99,.19Z"/>
        <path class="cls-52" d="M126.31,151.64h-39.87c-1.46,0-2.63-1.19-2.63-2.65,0-.33,.07-.66,.19-.97l7.39-18.55,15-4.11,15,4.11,7.38,18.55c.54,1.35-.12,2.89-1.47,3.43-.31,.13-.65,.19-.99,.19Z"/>
        <path class="cls-9" d="M126.31,151.64h-39.87c-1.46,0-2.63-1.19-2.63-2.65,0-.33,.07-.66,.19-.97l7.39-18.55,15-4.11,15,4.11,7.38,18.55c.54,1.35-.12,2.89-1.47,3.43-.31,.13-.65,.19-.99,.19Z"/>
        <path class="cls-52" d="M126.31,151.64h-39.87c-1.46,0-2.63-1.19-2.63-2.65,0-.33,.07-.66,.19-.97l7.39-18.55,15-4.11,15,4.11,7.38,18.55c.54,1.35-.12,2.89-1.47,3.43-.31,.13-.65,.19-.99,.19Z"/>
        <path class="cls-9" d="M126.31,151.64h-39.87c-1.46,0-2.63-1.19-2.63-2.65,0-.33,.07-.66,.19-.97l7.39-18.55,15-4.11,15,4.11,7.38,18.55c.54,1.35-.12,2.89-1.47,3.43-.31,.13-.65,.19-.99,.19Z"/>
        <path class="cls-52" d="M126.31,151.64h-39.87c-1.46,0-2.63-1.19-2.63-2.65,0-.33,.07-.66,.19-.97l7.39-18.55,15-4.11,15,4.11,7.38,18.55c.54,1.35-.12,2.89-1.47,3.43-.31,.13-.65,.19-.99,.19Z"/>
        <path class="cls-9" d="M126.31,151.64h-39.87c-1.46,0-2.63-1.19-2.63-2.65,0-.33,.07-.66,.19-.97l7.39-18.55,15-4.11,15,4.11,7.38,18.55c.54,1.35-.12,2.89-1.47,3.43-.31,.13-.65,.19-.99,.19Z"/>
        <path class="cls-52" d="M126.31,151.64h-39.87c-1.46,0-2.63-1.19-2.63-2.65,0-.33,.07-.66,.19-.97l7.39-18.55,15-4.11,15,4.11,7.38,18.55c.54,1.35-.12,2.89-1.47,3.43-.31,.13-.65,.19-.99,.19Z"/>
        <path class="cls-9" d="M126.31,151.64h-39.87c-1.46,0-2.63-1.19-2.63-2.65,0-.33,.07-.66,.19-.97l7.39-18.55,15-4.11,15,4.11,7.38,18.55c.54,1.35-.12,2.89-1.47,3.43-.31,.13-.65,.19-.99,.19Z"/>
        <path class="cls-52" d="M126.31,151.64h-39.87c-1.46,0-2.63-1.19-2.63-2.65,0-.33,.07-.66,.19-.97l7.39-18.55,15-4.11,15,4.11,7.38,18.55c.54,1.35-.12,2.89-1.47,3.43-.31,.13-.65,.19-.99,.19Z"/>
        <path class="cls-9" d="M126.31,151.64h-39.87c-1.46,0-2.63-1.19-2.63-2.65,0-.33,.07-.66,.19-.97l7.39-18.55,15-4.11,15,4.11,7.38,18.55c.54,1.35-.12,2.89-1.47,3.43-.31,.13-.65,.19-.99,.19Z"/>
        <path class="cls-52" d="M126.31,151.64h-39.87c-1.46,0-2.63-1.19-2.63-2.65,0-.33,.07-.66,.19-.97l7.39-18.55,15-4.11,15,4.11,7.38,18.55c.54,1.35-.12,2.89-1.47,3.43-.31,.13-.65,.19-.99,.19Z"/>
        <path class="cls-9" d="M126.31,151.64h-39.87c-1.46,0-2.63-1.19-2.63-2.65,0-.33,.07-.66,.19-.97l7.39-18.55,15-4.11,15,4.11,7.38,18.55c.54,1.35-.12,2.89-1.47,3.43-.31,.13-.65,.19-.99,.19Z"/>
        <path class="cls-52" d="M126.31,151.64h-39.87c-1.46,0-2.63-1.19-2.63-2.65,0-.33,.07-.66,.19-.97l7.39-18.55,15-4.11,15,4.11,7.38,18.55c.54,1.35-.12,2.89-1.47,3.43-.31,.13-.65,.19-.99,.19Z"/>
        <path class="cls-9" d="M126.31,151.64h-39.87c-1.46,0-2.63-1.19-2.63-2.65,0-.33,.07-.66,.19-.97l7.39-18.55,15-4.11,15,4.11,7.38,18.55c.54,1.35-.12,2.89-1.47,3.43-.31,.13-.65,.19-.99,.19Z"/>
        <path class="cls-52" d="M126.31,151.64h-39.87c-1.46,0-2.63-1.19-2.63-2.65,0-.33,.07-.66,.19-.97l7.39-18.55,15-4.11,15,4.11,7.38,18.55c.54,1.35-.12,2.89-1.47,3.43-.31,.13-.65,.19-.99,.19Z"/>
        <path class="cls-9" d="M126.31,151.64h-39.87c-1.46,0-2.63-1.19-2.63-2.65,0-.33,.07-.66,.19-.97l7.39-18.55,15-4.11,15,4.11,7.38,18.55c.54,1.35-.12,2.89-1.47,3.43-.31,.13-.65,.19-.99,.19Z"/>
        <path class="cls-52" d="M126.31,151.64h-39.87c-1.46,0-2.63-1.19-2.63-2.65,0-.33,.07-.66,.19-.97l7.39-18.55,15-4.11,15,4.11,7.38,18.55c.54,1.35-.12,2.89-1.47,3.43-.31,.13-.65,.19-.99,.19Z"/>
        <path class="cls-9" d="M126.31,151.64h-39.87c-1.46,0-2.63-1.19-2.63-2.65,0-.33,.07-.66,.19-.97l7.39-18.55,15-4.11,15,4.11,7.38,18.55c.54,1.35-.12,2.89-1.47,3.43-.31,.13-.65,.19-.99,.19Z"/>
        <path class="cls-48" d="M126.31,151.64h-39.87c-1.46,0-2.63-1.19-2.63-2.65,0-.33,.07-.66,.19-.97l7.39-18.55,15-4.11,15,4.11,7.38,18.55c.54,1.35-.12,2.89-1.47,3.43-.31,.13-.65,.19-.99,.19Z"/>
        <path class="cls-9" d="M126.31,151.64h-39.87c-1.46,0-2.63-1.19-2.63-2.65,0-.33,.07-.66,.19-.97l7.39-18.55,15-4.11,15,4.11,7.38,18.55c.54,1.35-.12,2.89-1.47,3.43-.31,.13-.65,.19-.99,.19Z"/>
        <path class="cls-64" d="M42.51,36.96h125.73c2.7,0,4.88,2.18,4.88,4.88h0v88.56c0,2.56-2.07,4.63-4.63,4.63H42.27c-2.56,0-4.63-2.07-4.63-4.63h0V41.83c0-2.69,2.18-4.86,4.87-4.87Z"/>
        <path class="cls-66" d="M173,41.83v3c0-2.69-2.18-4.87-4.87-4.87-.01,0-.03,0-.04,0H42.36c-2.69,0-4.87,2.18-4.88,4.87v-3c.01-2.69,2.19-4.86,4.88-4.87h125.73c2.7-.02,4.89,2.15,4.91,4.85,0,0,0,.01,0,.02Z"/>
        <path class="cls-48" d="M173.12,119.05v11.34c0,2.56-2.07,4.63-4.63,4.63,0,0,0,0-.01,0H42.27c-2.56,0-4.63-2.07-4.63-4.63h0v-11.34H173.12Z"/>
        <rect class="cls-38" x="37.69" y="118.81" width="135.48" height="2.5"/>
        <path class="cls-59" d="M173.17,116.55v2.5H37.69s-1.08-7,.23-6.76c23.08,4.17,135.25,4.26,135.25,4.26Z"/>
        <rect class="cls-47" x="44.61" y="44.73" width="121.65" height="67.66"/>
        <line class="cls-9" x1="37.69" y1="89" x2="37.69" y2="55.32"/>
        <line class="cls-9" x1="173.17" y1="72.57" x2="173.17" y2="77.55"/>
        <line class="cls-9" x1="173.17" y1="59.74" x2="173.17" y2="69.12"/>
        <path class="cls-9" d="M37.69,51.63v-9.8c.01-2.69,2.19-4.86,4.88-4.87h125.73c2.69,0,4.87,2.19,4.87,4.88v14.12"/>
        <line class="cls-18" x1="37.69" y1="119.05" x2="173.17" y2="119.05"/>
        <rect class="cls-65" x="44.61" y="109.61" width="121.65" height="2.78"/>
        <polygon class="cls-29" points="96.71 112.38 93.93 112.38 111.05 44.73 113.83 44.73 96.71 112.38"/>
        <polygon class="cls-28" points="90.6 112.38 87.82 112.38 104.94 44.73 107.72 44.73 90.6 112.38"/>
        <polygon class="cls-27" points="109.13 112.38 100.65 112.38 117.76 44.73 126.25 44.73 109.13 112.38"/>
        <line class="cls-9" x1="44.61" y1="72.94" x2="44.61" y2="66.39"/>
        <circle class="cls-58" cx="155.22" cy="115.96" r=".71"/>
        <circle class="cls-58" cx="156.56" cy="115.46" r=".21"/>
        <circle class="cls-58" cx="155.52" cy="114.59" r=".21"/>
        <circle class="cls-58" cx="153.48" cy="114.57" r=".49"/>
        <circle class="cls-58" cx="152.79" cy="116.01" r=".43"/>
        <circle class="cls-58" cx="151.57" cy="115.02" r=".22"/>
        <circle class="cls-58" cx="152.06" cy="114.05" r=".27"/>
        <circle class="cls-58" cx="149.96" cy="115.71" r=".46"/>
        <circle class="cls-58" cx="158.19" cy="115.09" r=".29"/>
        <circle class="cls-58" cx="157.11" cy="114.21" r=".17"/>
        <circle class="cls-58" cx="158.38" cy="113.62" r=".29"/>
        <circle class="cls-58" cx="157.06" cy="114.85" r=".2"/>
        <circle class="cls-58" cx="156.07" cy="113.62" r=".22"/>
        <circle class="cls-58" cx="154.65" cy="113.29" r=".33"/>
        <circle class="cls-58" cx="154.92" cy="114.12" r=".07"/>
        <circle class="cls-58" cx="154.61" cy="114.81" r=".11"/>
        <circle class="cls-58" cx="158.18" cy="116.28" r=".46"/>
        <circle class="cls-58" cx="160.04" cy="115.73" r=".36"/>
        <circle class="cls-58" cx="161.86" cy="116.33" r=".75"/>
        <circle class="cls-58" cx="164.13" cy="116.38" r=".8"/>
        <circle class="cls-58" cx="165.55" cy="116.05" r=".35"/>
        <circle class="cls-58" cx="164.26" cy="114.93" r=".12"/>
        <circle class="cls-58" cx="162.51" cy="114.32" r=".27"/>
        <circle class="cls-58" cx="161.38" cy="113.94" r=".27"/>
        <circle class="cls-58" cx="160.41" cy="114.28" r=".37"/>
        <circle class="cls-58" cx="159.41" cy="114.59" r=".27"/>
        <circle class="cls-58" cx="162.08" cy="115.19" r=".16"/>
        <circle class="cls-65" cx="141.05" cy="108.57" r="1.35"/>
        <circle class="cls-65" cx="143.59" cy="107.62" r=".4"/>
        <circle class="cls-65" cx="141.62" cy="105.97" r=".4"/>
        <circle class="cls-65" cx="137.74" cy="105.93" r=".93"/>
        <circle class="cls-65" cx="136.42" cy="108.67" r=".82"/>
        <circle class="cls-65" cx="134.1" cy="106.8" r=".42"/>
        <circle class="cls-65" cx="135.03" cy="104.94" r=".51"/>
        <circle class="cls-65" cx="131.03" cy="108.09" r=".88"/>
        <circle class="cls-65" cx="146.71" cy="106.92" r=".55"/>
        <circle class="cls-65" cx="144.64" cy="105.25" r=".32"/>
        <circle class="cls-65" cx="147.06" cy="104.12" r=".55"/>
        <circle class="cls-65" cx="144.54" cy="106.47" r=".38"/>
        <circle class="cls-65" cx="142.66" cy="104.12" r=".43"/>
        <circle class="cls-65" cx="139.97" cy="103.49" r=".63"/>
        <circle class="cls-65" cx="140.47" cy="105.08" r=".14"/>
        <circle class="cls-65" cx="139.89" cy="106.39" r=".2"/>
        <circle class="cls-65" cx="146.68" cy="109.18" r=".88"/>
        <circle class="cls-65" cx="150.21" cy="108.15" r=".68"/>
        <circle class="cls-65" cx="153.67" cy="109.28" r="1.43"/>
        <circle class="cls-65" cx="158.01" cy="109.38" r="1.53"/>
        <circle class="cls-65" cx="160.71" cy="108.76" r=".67"/>
        <circle class="cls-65" cx="158.25" cy="106.62" r=".24"/>
        <circle class="cls-65" cx="154.93" cy="105.46" r=".52"/>
        <circle class="cls-65" cx="152.77" cy="104.73" r=".52"/>
        <circle class="cls-65" cx="150.93" cy="105.38" r=".71"/>
        <circle class="cls-65" cx="149.02" cy="105.97" r=".52"/>
        <circle class="cls-65" cx="154.1" cy="107.11" r=".31"/>
        <circle class="cls-38" cx="58.22" cy="123.57" r=".64"/>
        <line class="cls-18" x1="52.76" y1="94.43" x2="48.76" y2="103.68"/>
        <line class="cls-18" x1="54.13" y1="97.22" x2="52.13" y2="101.84"/>
        <circle class="cls-53" cx="51.33" cy="58.23" r=".68"/>
        <line class="cls-1" x1="175.59" y1="107.02" x2="175.59" y2="116.88"/>
        <line class="cls-1" x1="175.59" y1="118.73" x2="175.59" y2="120.31"/>
        <line class="cls-9" x1="173.12" y1="81.54" x2="173.12" y2="84.22"/>
        <circle class="cls-38" cx="54.26" cy="122.18" r="2.12"/>
        <circle class="cls-38" cx="56.52" cy="126.35" r="1.06"/>
        <circle class="cls-38" cx="50.39" cy="124.31" r="1.05"/>
        <circle class="cls-27" cx="105.38" cy="127.59" r="4.02"/>
        <path class="cls-9" d="M109.15,125.35c1.25,2.05,.6,4.73-1.46,5.98-2.05,1.25-4.73,.6-5.98-1.46-1.25-2.05-.6-4.73,1.46-5.98,.68-.41,1.46-.63,2.26-.63"/>
        <line class="cls-18" x1="88.47" y1="143.52" x2="87.41" y2="146.32"/>
        <line class="cls-18" x1="90.13" y1="139.13" x2="89.5" y2="140.8"/>
        <line class="cls-11" x1="59.55" y1="109.61" x2="72.3" y2="109.61"/>
        <line class="cls-12" x1="106.38" y1="40.06" x2="119.12" y2="40.06"/>
        <line class="cls-12" x1="141.52" y1="40.06" x2="147.42" y2="40.06"/>
        <line class="cls-4" x1="43.77" y1="86.93" x2="43.77" y2="101.26"/>
        <line class="cls-4" x1="166.98" y1="55.52" x2="166.98" y2="69.85"/>
        <line class="cls-4" x1="166.98" y1="89.69" x2="166.98" y2="104.02"/>
        <line class="cls-16" x1="165.24" y1="75.62" x2="165.24" y2="89.96"/>
        <line class="cls-16" x1="165.24" y1="47.59" x2="165.24" y2="50.51"/>
        <path class="cls-38" d="M145.45,134.96h-2.92c-.55,0-1-.45-1-1s.45-1,1-1h2.92c.55,0,1,.45,1,1s-.45,1-1,1Z"/>
        <line class="cls-16" x1="45.55" y1="102.97" x2="45.55" y2="105.89"/>
        <line class="cls-16" x1="45.55" y1="45.7" x2="45.55" y2="48.62"/>
        <polyline class="cls-18" points="44.61 62.06 44.61 44.73 166.26 44.73 166.26 112.38 44.61 112.38 44.61 76.07"/>
        <path class="cls-19" d="M172.32,127.51v3.55c-.2,2.01-1.83,3.58-3.85,3.7h-6.26"/>
        <line class="cls-20" x1="53.78" y1="133.93" x2="47.52" y2="133.93"/>
        <path class="cls-9" d="M164.29,135.02H42.29c-2.56,0-4.63-2.07-4.63-4.63h0v-37.84"/>
        <path class="cls-9" d="M173.17,88.14v42.25c0,2.56-2.07,4.63-4.63,4.63h0"/>
        <path class="cls-48" d="M147.76,151.83c.14-3.73,3.28-6.63,7-6.49,3.52,.14,6.35,2.96,6.49,6.49"/>
        <path class="cls-38" d="M161.26,151.83h-11.15c3.11-1.23,5.9-3.14,8.18-5.59,1.86,1.25,2.97,3.35,2.97,5.59Z"/>
        <path class="cls-9" d="M151.3,145.9c.98-.54,2.09-.81,3.21-.81,3.72,0,6.74,3.02,6.74,6.74h0"/>
        <path class="cls-9" d="M147.76,151.83c0-1.54,.53-3.04,1.5-4.24"/>
        <rect class="cls-38" x="79.3" y="149.03" width="61.99" height="3.91"/>
        <rect class="cls-9" x="79.3" y="149.03" width="61.99" height="3.91"/>
        <rect class="cls-48" x="72.75" y="149.03" width="61.99" height="3.91"/>
        <rect class="cls-9" x="72.75" y="149.03" width="61.99" height="3.91"/>
        <path class="cls-65" d="M45.05,53.5h86.83c.35,0,.64,.29,.64,.64v29.1c0,.35-.29,.64-.64,.64H45.05v-30.38h0Z"/>
        <rect class="cls-27" x="25.72" y="51.16" width="104.19" height="30.39"/>
        <rect class="cls-41" x="25.72" y="78.55" width="104.19" height="2.99"/>
        <line class="cls-9" x1="25.72" y1="72.94" x2="25.72" y2="64.91"/>
        <polyline class="cls-9" points="25.72 62.05 25.72 51.16 129.91 51.16 129.91 81.54 25.72 81.54 25.72 77.5"/>
        <path class="cls-55" d="M34.73,68.73h54.77c.79,0,1.43,.64,1.43,1.43h0c0,.79-.64,1.42-1.43,1.42H34.73c-.79,0-1.43-.64-1.43-1.43h0c0-.79,.64-1.42,1.43-1.42Z"/>
        <rect class="cls-23" x="33.3" y="62.05" width="26.25" height="2.85" rx="1.42" ry="1.42"/>
        <rect class="cls-39" x="65.04" y="62.05" width="53.48" height="2.85" rx="1.42" ry="1.42"/>
        <line class="cls-1" x1="29.71" y1="54.7" x2="31.25" y2="56.51"/>
        <line class="cls-1" x1="31.25" y1="54.7" x2="29.71" y2="56.51"/>
        <circle class="cls-44" cx="26.84" cy="138.95" r="1.77"/>
        <circle class="cls-45" cx="27.36" cy="136" r=".52"/>
        <circle class="cls-45" cx="26.31" cy="132.74" r=".56"/>
        <circle class="cls-45" cx="29.63" cy="140.51" r=".42"/>
        <circle class="cls-46" cx="29.07" cy="137.63" r=".45"/>
        <circle class="cls-44" cx="27.89" cy="142.21" r=".82"/>
        <circle class="cls-46" cx="28.53" cy="136.25" r=".25"/>
        <circle class="cls-44" cx="26.3" cy="134.95" r=".55"/>
        <path class="cls-17" d="M26.84,129.37c.55-1.79,1.35-3.49,2.36-5.06"/>
        <line class="cls-21" x1="24.7" y1="92.15" x2="29.07" y2="85.46"/>
        <line class="cls-21" x1="26.3" y1="95.57" x2="19.77" y2="95.57"/>
        <line class="cls-21" x1="33.74" y1="108.76" x2="27.21" y2="108.76"/>
        <line class="cls-21" x1="30.63" y1="103.2" x2="35.35" y2="95.57"/>
        <path class="cls-34" d="M51.64,156.12h-19c-.55,0-1-.45-1-1s.45-1,1-1h19c.55,0,1,.45,1,1s-.45,1-1,1Z"/>
        <path class="cls-34" d="M61.88,156.12h-4.73c-.55,0-1-.45-1-1s.45-1,1-1h4.73c.55,0,1,.45,1,1s-.45,1-1,1Z"/>
        <rect class="cls-32" x="22.99" y="152.19" width="161.51" height="7.67" rx="3.83" ry="3.83"/>
        <path class="cls-24" d="M184.5,156.21c0,2.11-1.7,3.82-3.81,3.83,0,0-.01,0-.02,0H26.83c-2.11,0-3.82-1.72-3.83-3.83,0-.67,.18-1.34,.52-1.92,.68,1.19,1.95,1.92,3.32,1.92H180.67c1.02,0,1.99-.41,2.71-1.13,.24-.24,.44-.5,.61-.79,.33,.58,.51,1.25,.51,1.92Z"/>
        <path class="cls-35" d="M67.81,154.47h-19c-.55,0-1-.45-1-1s.45-1,1-1h19c.55,0,1,.45,1,1s-.45,1-1,1Z"/>
        <path class="cls-35" d="M78.05,154.47h-4.74c-.55,0-1-.45-1-1s.45-1,1-1h4.74c.55,0,1,.45,1,1s-.45,1-1,1Z"/>
        <path class="cls-34" d="M44.21,159.86H25.21c-.55,0-1-.45-1-1s.45-1,1-1h19c.55,0,1,.45,1,1s-.45,1-1,1Z"/>
        <path class="cls-34" d="M54.44,159.86h-4.73c-.55,0-1-.45-1-1s.45-1,1-1h4.73c.55,0,1,.45,1,1s-.45,1-1,1Z"/>
        <path class="cls-9" d="M115.37,152.19h65.3c2.11,0,3.82,1.72,3.83,3.83h0c0,2.12-1.71,3.83-3.83,3.84H26.83c-2.12,0-3.83-1.72-3.83-3.84h0c0-2.12,1.72-3.83,3.84-3.83H95.67"/>
        <line class="cls-9" x1="101.1" y1="152.19" x2="105.22" y2="152.19"/>
        <line class="cls-9" x1="108.85" y1="152.19" x2="110.97" y2="152.19"/>
        <path class="cls-30" d="M154.71,143.45h-16.71l-.56-.94c-2.38-4-3.31-13.72-2.62-18.32h16.73c-.69,4.6,.24,14.33,2.62,18.32l.54,.94Z"/>
        <path class="cls-33" d="M152.69,141.44c-.21,0-.4-.13-.49-.33-.75-2-1.27-4.09-1.54-6.21-.04-.29,.17-.55,.46-.59,.29-.03,.55,.17,.59,.46,.26,2.03,.76,4.02,1.47,5.93,.12,.27,0,.58-.27,.7,0,0,0,0,0,0-.07,.02-.14,.04-.21,.04Z"/>
        <path class="cls-31" d="M140.17,143.88h-1.89l-.56-.93c-2.39-4-3.31-13.72-2.62-18.32h1.9c-.69,4.6-1.4,18.82,17.42,18.82l-14.25,.43Z"/>
        <line class="cls-9" x1="136.89" y1="127.4" x2="148.77" y2="127.4"/>
        <line class="cls-9" x1="137.15" y1="130.36" x2="146.38" y2="130.36"/>
        <path class="cls-27" d="M135.54,133.9c-.21-.04-.38-.2-.43-.41-.42-2.1-.59-4.23-.52-6.37,0-.29,.24-.53,.53-.53,.29,0,.53,.24,.53,.53-.06,2.04,.1,4.08,.49,6.09,.07,.28-.11,.57-.39,.64-.07,.03-.14,.04-.21,.05Z"/>
        <path class="cls-27" d="M137.86,142.57c-.21,.01-.41-.11-.51-.3-.88-1.95-1.52-4-1.92-6.1-.06-.28,.12-.56,.4-.62,0,0,.01,0,.02,0,.29-.05,.56,.14,.62,.43,.39,2,1.01,3.96,1.84,5.82,.12,.27,.01,.58-.25,.71-.06,.03-.13,.06-.2,.06Z"/>
        <path class="cls-9" d="M145.48,143.45h-7.48l-.56-.94c-2.38-4-3.31-13.72-2.62-18.32h3.78"/>
        <path class="cls-9" d="M141.24,124.19h10.29c-.69,4.6,.24,14.33,2.62,18.32l.56,.94h-4.85"/>
        <circle class="cls-60" cx="56.54" cy="139.82" r="1.07"/>
        <circle class="cls-60" cx="54.6" cy="144.49" r=".44"/>
        <circle class="cls-60" cx="54.72" cy="142.49" r=".23"/>
        <g class="cls-71">
          <circle class="cls-60" cx="53.55" cy="141.68" r=".23"/>
          <circle class="cls-60" cx="54.42" cy="140.65" r=".64"/>
          <circle class="cls-60" cx="53.31" cy="143.13" r=".64"/>
        </g>
        <g class="cls-69">
          <circle class="cls-60" cx="49.68" cy="143.79" r=".23"/>
          <circle class="cls-60" cx="50.72" cy="142.93" r=".64"/>
          <circle class="cls-60" cx="49.19" cy="145.18" r=".64"/>
        </g>
        <line class="cls-3" x1="92.3" y1="136.3" x2="121.59" y2="136.3"/>
        <path class="cls-2" d="M137.69,134.56c.3,1.8,.83,3.56,1.56,5.23"/>
        <line class="cls-2" x1="47.47" y1="91.4" x2="47.47" y2="86.28"/>
        <circle class="cls-27" cx="47.47" cy="94.87" r=".92"/>
        <line class="cls-2" x1="34.64" y1="156.12" x2="29.52" y2="156.12"/>
        <circle class="cls-27" cx="38.11" cy="156.12" r=".92"/>
        <circle class="cls-14" cx="58.44" cy="27.31" r="2.29"/>
        <circle class="cls-14" cx="208.61" cy="96.85" r="2.29"/>
        <circle class="cls-15" cx="19.24" cy="122.38" r="2.29"/>
        <circle class="cls-15" cx="186.39" cy="50.51" r="2.29"/>
        <circle class="cls-55" cx="162.51" cy="142.49" r="1.15"/>
        <circle class="cls-40" cx="169.42" cy="148.46" r="1.15"/>
        <circle class="cls-40" cx="194.34" cy="50.2" r="1.15"/>
        <circle class="cls-57" cx="22.02" cy="49.05" r="1.15"/>
        <circle class="cls-57" cx="65.04" cy="144.66" r="1.15"/>
        <circle class="cls-57" cx="181.08" cy="111.8" r="1.15"/>
      </g>
    </g>
  </g>
</svg>